<?xml version="1.0" encoding="UTF-8"?>
<svg xmlns="http://www.w3.org/2000/svg" width="1024" height="1024" viewBox="0 0 1024 1024">
  <defs>
    <linearGradient id="g" x1="0" x2="1" y1="0" y2="1">
      <stop offset="0" stop-color="#E6F4FE"/>
      <stop offset="1" stop-color="#BEE9FF"/>
    </linearGradient>
  </defs>
  <rect width="100%" height="100%" rx="160" fill="url(#g)"/>

  <!-- Libro blanco -->
  <g transform="translate(220,210) scale(1.2)">
    <path d="M30 80 L200 30 L380 80 L380 780 L200 720 L30 780 Z" fill="#FFFFFF" opacity="0.97"/>
    <path d="M200 30 L380 80 L200 130 L20 80 Z" fill="#E6F4FE" opacity="0.12"/>
    <g fill="#B3DDF6" opacity="0.9">
      <rect x="70" y="240" width="260" height="28" rx="6" />
      <rect x="70" y="300" width="220" height="20" rx="6" />
      <rect x="70" y="340" width="180" height="20" rx="6" />
    </g>
  </g>

  <!-- Letra C estilizada (sobrepuesta) -->
  <g transform="translate(560,300) scale(1.0)">
    <path d="M120 40 A80 80 0 1 0 120 200 L120 170 A50 50 0 1 1 120 70 Z" fill="#0578A6" />
  </g>

</svg>
